<svg width="1200" height="630" viewBox="0 0 1200 630" xmlns="http://www.w3.org/2000/svg">
  <defs>
    <linearGradient id="bg" x1="0" y1="0" x2="1200" y2="630" gradientUnits="userSpaceOnUse">
      <stop offset="0%" stop-color="#0a0b14"/>
      <stop offset="100%" stop-color="#12111f"/>
    </linearGradient>
    <radialGradient id="glowCyan" cx="0" cy="0" r="1" gradientUnits="userSpaceOnUse" gradientTransform="translate(220 160) rotate(90) scale(420)">
      <stop offset="0%" stop-color="#4fd8ff" stop-opacity="0.55"/>
      <stop offset="100%" stop-color="#4fd8ff" stop-opacity="0"/>
    </radialGradient>
    <radialGradient id="glowPurple" cx="0" cy="0" r="1" gradientUnits="userSpaceOnUse" gradientTransform="translate(980 520) rotate(90) scale(460)">
      <stop offset="0%" stop-color="#b34ce0" stop-opacity="0.5"/>
      <stop offset="100%" stop-color="#b34ce0" stop-opacity="0"/>
    </radialGradient>
    <linearGradient id="iconGrad" x1="0" y1="0" x2="1" y2="1">
      <stop offset="0%" stop-color="#7fe6ff"/>
      <stop offset="100%" stop-color="#c56bf0"/>
    </linearGradient>
    <pattern id="grid" width="48" height="48" patternUnits="userSpaceOnUse">
      <path d="M 48 0 L 0 0 0 48" fill="none" stroke="#ffffff" stroke-opacity="0.035" stroke-width="1"/>
    </pattern>
  </defs>

  <rect width="1200" height="630" fill="url(#bg)"/>
  <rect width="1200" height="630" fill="url(#grid)"/>
  <rect width="1200" height="630" fill="url(#glowCyan)"/>
  <rect width="1200" height="630" fill="url(#glowPurple)"/>

  <g transform="translate(520,120)" fill="none" stroke="url(#iconGrad)" stroke-width="10" stroke-linejoin="round" stroke-linecap="round"><path d="M120 0 C60 0 10 50 10 115 C10 190 120 320 120 320 C120 320 230 190 230 115 C230 50 180 0 120 0 Z"/><circle cx="120" cy="115" r="40" fill="url(#iconGrad)" stroke="none"/></g>

  <text x="80" y="560" font-family="Arial, sans-serif" font-size="28" font-weight="700" fill="#e7e9f5" letter-spacing="1">Youness Web</text>
  <text x="80" y="592" font-family="Arial, sans-serif" font-size="18" fill="#9aa0c0" letter-spacing="2">SEO LOCAL MAROC</text>

  <rect x="0" y="0" width="1200" height="630" fill="none" stroke="#ffffff" stroke-opacity="0.06" stroke-width="2"/>
</svg>